<svg xmlns="http://www.w3.org/2000/svg" viewBox="14 9.7 65 63" role="img" aria-label="Collins">
  <style type="text/css">
    .cls-0 { fill: #39ff14; }
    .cls-1 { fill: #f5f5f7; }
  </style>
  <path class="cls-1" d="m68 58.3c-2.4 0.4-6.7 0.2-11-3.6l-0.2 0.1c-2.1 1.2-5.2 2.4-9.6 2.5-1.5 0-3-0.2-4.5-0.5l-1.3 1.5-1.4 1.6-1.3 1.2-3.1 2.4c3 1.4 7.3 2.7 12.2 2.7h0.4c3.6-0.1 6.9-0.7 9.3-1.6 3.5-1.2 7.7-3.4 9.4-5l1-0.8 0.1-0.5z"/>
  <path class="cls-1" d="m31.8 49c-1-1.5-3.3-5.4-3.2-10.6 0-1.8 0.3-3.4 0.8-5.4 0.8-2.2 1.7-4 2.6-5.1 3.8-5.1 8.9-8 14.4-8.2 2.6-0.1 4.8 0.3 7.1 1.1 1.2 0.5 2.6 1.2 3.7 1.9v-0.1c0.9-1.5 2.3-3.2 5.7-6.4l1.1 0.4 0.2 0.1 0.1-0.1c-1.5-1.1-6.8-5-15.3-5.7-1.2-0.1-2.1-0.1-3-0.1-2.8 0.1-5.8 0.6-8.1 1.4-2.3 0.9-5.4 2.3-7.4 3.9-2.7 2.1-5 4.5-6.9 7.4-1.9 2.8-4.1 7.5-4.5 12.7-0.4 5.4 0.7 10.1 2.5 13.7 0.2 0.5 1.8 3.7 4 6.3l1.9-2.2c0.2-0.4 2.7-4.1 4.1-5.3l0.2 0.3z"/>
  <path class="cls-1" d="m75.1 14.3-0.9 0.7c-4.5 3.5-8.2 8.1-9.2 12.2-0.4 1.5-1.7 3.2-1.5 8.8v7.7-0.1l-8.9-10.8c-1.6-1.8-3.7-3.8-7.1-3.8s-5.6 1.7-7.1 4.2c-0.9 1.7-2 3.6-3.3 6.4l0.4-0.3c1.2-0.9 3-1.9 5.3-2 0.6 0 1.3 0.1 2.1 0.2 1.7 0.4 3 1.3 4 2.3l9.6 12.4c1.3 1.8 3.4 3 6 3 4.4-0.1 7.8-3 7.9-7.7l0.1-20c0-3 0.6-5.6 1.3-8.5v-0.1l1.3-2.2 2.9-5.7c-0.9 0.8-1.9 2.4-2.9 3.3z"/>
  <path class="cls-1" d="m37.8 43.9c-0.9 1.7-4.2 8.5-8.8 14.2l-2.9 3.5-2 2.2c-2.8 2.8-5.6 4.9-9 7.2 4.7-1.8 8.1-3.4 11.5-5.4 2.3-1.3 5.2-3.3 9-6.3l4.2-4c2.5-2.7 4.5-5.6 6-8.1l1.4-2.4 0.6-1.2 0.1-0.3c-1-1.5-2.5-2.9-4.8-2.9-1.2-0.1-3 0.5-4.2 1.7-0.4 0.5-0.8 1-1.1 1.8z"/>
  <path class="cls-0" d="m64.7 16.6c-1.6-1.1-6.4-4.9-13.6-5.5-3.7-0.4-6.8-0.1-9.6 0.5-2.9 0.6-5.7 1.8-8.8 3.6-3.6 2.2-7 5.5-9.3 9.2-2.3 3.4-4 8.3-4.1 13.5-0.1 5 0.9 9.5 2.9 13 0.8 1.7 2.3 3.9 4.4 6.1 1.1-1.3 3.2-4.5 5.1-8.1-1.3-1.7-3.1-5.3-3.2-9.6-0.1-3.7 0.8-6.4 2.3-9.3 1.1-1.9 3-4.1 5.1-5.7 3.1-2.4 7.1-4.4 11.3-4.5 2.7-0.1 4.5 0.2 6.7 0.8 1.7 0.5 3.1 1.3 4.2 2l0.1 0.1 0.1-0.1c1.4-2.2 3.3-4.5 5.7-6.4l0.3 0.3 0.4 0.1z"/>
</svg>
